<svg preserveAspectRatio="none" width="100%" height="100%" overflow="visible" style="display: block;" viewBox="0 0 20 30" fill="none" xmlns="http://www.w3.org/2000/svg">
<path id="Vector" d="M10 0.5C10.0828 0.5 10.1647 0.515655 10.2402 0.545898C10.3157 0.57613 10.3835 0.61975 10.4395 0.673828V0.674805L19.3271 9.24512C19.4401 9.35404 19.5 9.49861 19.5 9.64453C19.4999 9.79032 19.44 9.93414 19.3271 10.043C19.2136 10.1524 19.0558 10.2168 18.8877 10.2168C18.7196 10.2168 18.5618 10.1524 18.4482 10.043L11.458 3.2998L10.6113 2.48242V28.9287C10.6113 29.0742 10.5511 29.2175 10.4385 29.3262C10.3252 29.4354 10.1678 29.5 10 29.5C9.83223 29.5 9.67482 29.4354 9.56152 29.3262C9.4489 29.2175 9.38869 29.0742 9.38867 28.9287V2.48242L8.54199 3.2998L1.55176 10.043C1.43821 10.1524 1.28038 10.2168 1.1123 10.2168C0.944221 10.2168 0.786396 10.1524 0.672852 10.043C0.560003 9.93414 0.500102 9.79032 0.5 9.64453C0.5 9.57189 0.514669 9.49882 0.543945 9.43066C0.57324 9.36254 0.616862 9.29911 0.672852 9.24512L9.56055 0.674805V0.673828C9.61648 0.61975 9.68427 0.57613 9.75977 0.545898C9.83534 0.515655 9.91717 0.5 10 0.5Z" fill="var(--fill-0, #645F36)" stroke="var(--stroke-0, #645F36)"/>
</svg>
