<svg preserveAspectRatio="none" width="100%" height="100%" overflow="visible" style="display: block;" viewBox="0 0 20 30" fill="none" xmlns="http://www.w3.org/2000/svg">
<path id="Vector" fill-rule="evenodd" clip-rule="evenodd" d="M10 30C10.2946 30 10.5772 29.8871 10.7856 29.6862C10.9939 29.4853 11.111 29.2128 11.111 28.9286V3.65954L18.1011 10.4027C18.3097 10.6039 18.5926 10.7169 18.8876 10.7169C19.1827 10.7169 19.4656 10.6039 19.6742 10.4027C19.8828 10.2015 20 9.92866 20 9.64416C20 9.35966 19.8828 9.08681 19.6742 8.88563L10.7866 0.314752C10.6834 0.21498 10.5608 0.135822 10.4258 0.0818117C10.2908 0.0278014 10.1461 0 10 0C9.85387 0 9.70918 0.0278014 9.57421 0.0818117C9.43924 0.135822 9.31664 0.21498 9.21344 0.314752L0.325802 8.88563C0.22251 8.98524 0.140575 9.1035 0.0846733 9.23365C0.0287721 9.36379 0 9.50329 0 9.64416C0 9.92866 0.117194 10.2015 0.325802 10.4027C0.53441 10.6039 0.817343 10.7169 1.11236 10.7169C1.40737 10.7169 1.69031 10.6039 1.89892 10.4027L8.88905 3.65954V28.9286C8.88905 29.2128 9.00609 29.4853 9.21444 29.6862C9.42278 29.8871 9.70536 30 10 30Z" fill="var(--fill-0, #FDCD84)"/>
</svg>
