<svg xmlns="http://www.w3.org/2000/svg" viewBox="0 0 180 180" role="img" aria-label="Coletivo Aurora">
  <rect width="180" height="180" rx="40" fill="#F7F5EF" />
  <g transform="translate(28 30.4) scale(1.5581)">
    <path
      d="M49.4589 29.6436H49.4052C47.1327 29.9416 44.9735 31.0501 43.202 32.6712C43.041 32.8262 42.7845 33.0586 42.7666 32.6951C42.7547 32.2898 42.7547 31.8189 42.7129 31.4017C42.6831 30.9607 42.6294 30.4958 42.5578 30.0429C42.0449 26.7113 40.4225 23.5405 38.1023 21.2042C37.9233 21.0195 37.6788 20.8288 37.4163 20.8586C37.2255 20.8764 37.0584 21.0135 36.9272 21.1804C34.9231 24.1187 33.9091 27.7602 34.2133 31.5686C34.4698 34.793 35.7283 37.8624 37.7026 40.4013C38.3468 41.2834 39.1819 42.4575 40.4404 42.0224C45.6117 40.6755 49.6617 36.1459 49.8824 30.7223C49.9062 30.329 49.9719 29.7151 49.4589 29.6495V29.6436Z"
      fill="#645F36"
    />
    <path
      d="M79.1389 35.2963C78.9481 33.6573 78.5961 32.0481 78.107 30.4747C77.1587 27.4411 75.8822 24.1035 75.2858 22.5718C75.0651 22.0115 74.7967 21.4692 74.4746 20.9566C71.3074 15.9324 68.665 12.5531 66.9532 10.5505C65.5336 8.88768 63.8098 7.50497 61.8594 6.50966C55.5011 3.27936 45.8503 0.394731 45.1525 0.233812C44.2816 0.0371334 31.9885 -0.0820659 30.7181 0.0669332C29.6564 0.192093 28.6424 0.60929 27.6284 0.919208C27.354 1.00265 27.0856 1.08609 26.8172 1.17549C26.0955 1.41985 25.3917 1.71784 24.7117 2.06352C21.4848 3.70251 18.3952 5.58586 15.4248 7.67185C13.528 9.0188 11.6671 10.4075 9.82398 11.8259C9.81802 11.8319 9.80609 11.8379 9.80012 11.8438C7.48585 13.6199 5.68453 15.98 4.56318 18.6739C1.90296 25.1048 0.441623 34.1639 0.173215 36.1128C-0.178698 38.6756 0.0658513 48.885 0.328295 51.0962C0.590739 53.3073 3.26886 59.1123 3.79374 60.2328C4.31863 61.3533 9.47207 68.5172 10.9871 70.0071C11.8341 70.8415 14.4466 72.4209 16.5759 73.6368C18.6576 74.8288 20.8884 75.7347 23.2086 76.3307C25.2068 76.8492 27.4554 77.3856 29.1971 77.7968C31.2131 78.2677 33.2769 78.512 35.3466 78.5061C45.8265 78.4584 51.2185 77.2604 51.2185 77.2604C56.9624 76.4499 65.5575 71.7594 65.5575 71.7594C71.6116 68.6721 74.6118 63.326 74.6118 63.326C77.1348 59.1421 78.5604 52.5921 78.5604 52.5921C80.0277 45.8097 79.5564 38.8723 79.133 35.3023L79.1389 35.2963ZM58.6325 63.63C56.1751 63.7909 53.7177 63.7075 51.1827 63.63C50.9441 63.63 50.5505 62.9982 50.3894 62.5989C49.6737 59.8275 48.4092 55.4708 47.7709 52.6994C47.2162 49.928 47.2162 49.8505 44.5978 49.928C43.1722 49.928 41.9017 49.928 40.5537 50.0055C39.3668 50.0055 37.7027 50.2439 36.0385 50.2439C33.0264 50.2439 32.3941 50.1664 31.2847 53.0928C30.9686 53.9629 29.1434 60.5368 28.8273 61.4069C28.4336 62.438 28.4336 63.8624 27.7179 64.2558C26.9246 64.8101 25.5766 64.5717 24.4671 64.4942C23.1967 64.3333 21.9322 64.1783 20.7393 63.7015C20.2621 63.5406 19.8684 62.5155 20.0235 61.9612C20.3396 60.2209 22.1648 52.6934 22.642 50.9531C24.9383 43.6641 27.2407 36.4585 29.7757 29.2529C31.2012 24.8962 33.1039 20.6229 34.7681 16.3436C35.4838 14.5199 36.5097 13.8106 38.4959 13.8881C40.7923 14.049 43.1722 13.9656 45.5521 13.8881C47.0552 13.8106 48.0871 14.7583 48.4032 15.7893C49.5126 19.1925 50.3059 22.679 51.1767 26.1656C51.97 29.6522 52.6023 33.2163 53.318 36.7803C53.9503 39.4742 54.5885 42.1681 55.2208 45.1779C55.9365 47.7884 56.6463 50.5657 57.1235 52.8603C57.7557 56.1085 58.4715 59.3567 59.3423 61.8897C59.8195 63.1591 59.3423 63.5525 58.6266 63.63H58.6325Z"
      fill="#645F36"
    />
  </g>
</svg>
